<mxfile host="Electron" modified="2023-11-28T11:36:56.354Z" agent="Mozilla/5.0 (Windows NT 10.0; Win64; x64) AppleWebKit/537.36 (KHTML, like Gecko) draw.io/22.1.2 Chrome/114.0.5735.289 Electron/25.9.4 Safari/537.36" etag="WfVleDfdgOP5uwylb4Rp" version="22.1.2" type="device">
  <diagram id="R2lEEEUBdFMjLlhIrx00" name="Page-1">
    <mxGraphModel dx="2350" dy="2056" grid="1" gridSize="10" guides="1" tooltips="1" connect="1" arrows="1" fold="1" page="1" pageScale="1" pageWidth="850" pageHeight="1100" math="0" shadow="0" extFonts="Permanent Marker^https://fonts.googleapis.com/css?family=Permanent+Marker">
      <root>
        <mxCell id="0" />
        <mxCell id="1" parent="0" />
        <mxCell id="7xcAEnI3vwqQjyfLTwkh-3" style="edgeStyle=orthogonalEdgeStyle;rounded=0;orthogonalLoop=1;jettySize=auto;html=1;entryX=0;entryY=0.5;entryDx=0;entryDy=0;startArrow=ERmany;startFill=0;endArrow=none;endFill=0;" parent="1" source="7xcAEnI3vwqQjyfLTwkh-1" target="7xcAEnI3vwqQjyfLTwkh-2" edge="1">
          <mxGeometry relative="1" as="geometry" />
        </mxCell>
        <mxCell id="7xcAEnI3vwqQjyfLTwkh-12" style="edgeStyle=orthogonalEdgeStyle;rounded=0;orthogonalLoop=1;jettySize=auto;html=1;endArrow=none;endFill=0;" parent="1" source="7xcAEnI3vwqQjyfLTwkh-1" target="7xcAEnI3vwqQjyfLTwkh-9" edge="1">
          <mxGeometry relative="1" as="geometry">
            <Array as="points">
              <mxPoint x="310" y="200" />
              <mxPoint x="180" y="200" />
            </Array>
          </mxGeometry>
        </mxCell>
        <mxCell id="7xcAEnI3vwqQjyfLTwkh-80" style="edgeStyle=orthogonalEdgeStyle;rounded=0;orthogonalLoop=1;jettySize=auto;html=1;entryX=0.5;entryY=0;entryDx=0;entryDy=0;endArrow=none;endFill=0;startArrow=ERone;startFill=0;" parent="1" source="7xcAEnI3vwqQjyfLTwkh-1" target="7xcAEnI3vwqQjyfLTwkh-79" edge="1">
          <mxGeometry relative="1" as="geometry" />
        </mxCell>
        <mxCell id="7xcAEnI3vwqQjyfLTwkh-1" value="User" style="whiteSpace=wrap;html=1;align=center;fillColor=#dae8fc;strokeColor=#6c8ebf;" parent="1" vertex="1">
          <mxGeometry x="300" y="240" width="100" height="40" as="geometry" />
        </mxCell>
        <mxCell id="7xcAEnI3vwqQjyfLTwkh-5" style="edgeStyle=orthogonalEdgeStyle;rounded=0;orthogonalLoop=1;jettySize=auto;html=1;entryX=0;entryY=0.5;entryDx=0;entryDy=0;endArrow=ERoneToMany;endFill=0;" parent="1" source="7xcAEnI3vwqQjyfLTwkh-2" target="7xcAEnI3vwqQjyfLTwkh-4" edge="1">
          <mxGeometry relative="1" as="geometry" />
        </mxCell>
        <mxCell id="7xcAEnI3vwqQjyfLTwkh-2" value="Orders" style="shape=rhombus;perimeter=rhombusPerimeter;whiteSpace=wrap;html=1;align=center;fillColor=#1ba1e2;fontColor=#ffffff;strokeColor=#006EAF;" parent="1" vertex="1">
          <mxGeometry x="550" y="230" width="120" height="60" as="geometry" />
        </mxCell>
        <mxCell id="7xcAEnI3vwqQjyfLTwkh-23" style="edgeStyle=orthogonalEdgeStyle;rounded=0;orthogonalLoop=1;jettySize=auto;html=1;entryX=0;entryY=0.5;entryDx=0;entryDy=0;endArrow=none;endFill=0;" parent="1" source="7xcAEnI3vwqQjyfLTwkh-4" target="7xcAEnI3vwqQjyfLTwkh-21" edge="1">
          <mxGeometry relative="1" as="geometry">
            <Array as="points">
              <mxPoint x="970" y="250" />
              <mxPoint x="970" y="170" />
            </Array>
          </mxGeometry>
        </mxCell>
        <mxCell id="7xcAEnI3vwqQjyfLTwkh-25" style="edgeStyle=orthogonalEdgeStyle;rounded=0;orthogonalLoop=1;jettySize=auto;html=1;endArrow=none;endFill=0;" parent="1" source="7xcAEnI3vwqQjyfLTwkh-4" target="7xcAEnI3vwqQjyfLTwkh-18" edge="1">
          <mxGeometry relative="1" as="geometry">
            <Array as="points">
              <mxPoint x="970" y="270" />
              <mxPoint x="970" y="290" />
            </Array>
          </mxGeometry>
        </mxCell>
        <mxCell id="7xcAEnI3vwqQjyfLTwkh-26" style="edgeStyle=orthogonalEdgeStyle;rounded=0;orthogonalLoop=1;jettySize=auto;html=1;entryX=0;entryY=0.5;entryDx=0;entryDy=0;endArrow=none;endFill=0;" parent="1" source="7xcAEnI3vwqQjyfLTwkh-4" target="7xcAEnI3vwqQjyfLTwkh-19" edge="1">
          <mxGeometry relative="1" as="geometry">
            <Array as="points">
              <mxPoint x="910" y="310" />
              <mxPoint x="1020" y="310" />
            </Array>
          </mxGeometry>
        </mxCell>
        <mxCell id="7xcAEnI3vwqQjyfLTwkh-27" style="edgeStyle=orthogonalEdgeStyle;rounded=0;orthogonalLoop=1;jettySize=auto;html=1;entryX=0;entryY=0.5;entryDx=0;entryDy=0;endArrow=none;endFill=0;" parent="1" source="7xcAEnI3vwqQjyfLTwkh-4" target="7xcAEnI3vwqQjyfLTwkh-22" edge="1">
          <mxGeometry relative="1" as="geometry">
            <Array as="points">
              <mxPoint x="900" y="410" />
            </Array>
          </mxGeometry>
        </mxCell>
        <mxCell id="7xcAEnI3vwqQjyfLTwkh-28" style="edgeStyle=orthogonalEdgeStyle;rounded=0;orthogonalLoop=1;jettySize=auto;html=1;entryX=0;entryY=0.5;entryDx=0;entryDy=0;endArrow=none;endFill=0;startArrow=ERmany;startFill=0;" parent="1" source="7xcAEnI3vwqQjyfLTwkh-4" target="7xcAEnI3vwqQjyfLTwkh-20" edge="1">
          <mxGeometry relative="1" as="geometry">
            <Array as="points">
              <mxPoint x="870" y="80" />
            </Array>
          </mxGeometry>
        </mxCell>
        <mxCell id="7xcAEnI3vwqQjyfLTwkh-51" style="edgeStyle=orthogonalEdgeStyle;rounded=0;orthogonalLoop=1;jettySize=auto;html=1;entryX=1;entryY=0.5;entryDx=0;entryDy=0;endArrow=none;endFill=0;startArrow=ERzeroToMany;startFill=0;exitX=0.2;exitY=0;exitDx=0;exitDy=0;exitPerimeter=0;" parent="1" source="7xcAEnI3vwqQjyfLTwkh-4" target="7xcAEnI3vwqQjyfLTwkh-50" edge="1">
          <mxGeometry relative="1" as="geometry">
            <Array as="points">
              <mxPoint x="840" y="130" />
            </Array>
          </mxGeometry>
        </mxCell>
        <mxCell id="7xcAEnI3vwqQjyfLTwkh-58" style="edgeStyle=orthogonalEdgeStyle;rounded=0;orthogonalLoop=1;jettySize=auto;html=1;entryX=0.5;entryY=0;entryDx=0;entryDy=0;endArrow=none;endFill=0;startArrow=ERoneToMany;startFill=0;" parent="1" source="7xcAEnI3vwqQjyfLTwkh-4" target="7xcAEnI3vwqQjyfLTwkh-57" edge="1">
          <mxGeometry relative="1" as="geometry" />
        </mxCell>
        <mxCell id="7xcAEnI3vwqQjyfLTwkh-4" value="Product" style="whiteSpace=wrap;html=1;align=center;fillColor=#dae8fc;strokeColor=#6c8ebf;" parent="1" vertex="1">
          <mxGeometry x="820" y="240" width="100" height="40" as="geometry" />
        </mxCell>
        <mxCell id="7xcAEnI3vwqQjyfLTwkh-6" value="Product Name" style="ellipse;whiteSpace=wrap;html=1;align=center;fillColor=#f8cecc;strokeColor=#b85450;" parent="1" vertex="1">
          <mxGeometry x="1020" y="210" width="100" height="40" as="geometry" />
        </mxCell>
        <mxCell id="7xcAEnI3vwqQjyfLTwkh-13" style="edgeStyle=orthogonalEdgeStyle;rounded=0;orthogonalLoop=1;jettySize=auto;html=1;endArrow=none;endFill=0;" parent="1" source="7xcAEnI3vwqQjyfLTwkh-7" edge="1">
          <mxGeometry relative="1" as="geometry">
            <mxPoint x="320" y="240" as="targetPoint" />
            <Array as="points">
              <mxPoint x="260" y="180" />
              <mxPoint x="320" y="180" />
              <mxPoint x="320" y="240" />
            </Array>
          </mxGeometry>
        </mxCell>
        <mxCell id="7xcAEnI3vwqQjyfLTwkh-7" value="Email" style="ellipse;whiteSpace=wrap;html=1;align=center;fillColor=#f8cecc;strokeColor=#b85450;" parent="1" vertex="1">
          <mxGeometry x="210" y="80" width="100" height="40" as="geometry" />
        </mxCell>
        <mxCell id="7xcAEnI3vwqQjyfLTwkh-14" style="edgeStyle=orthogonalEdgeStyle;rounded=0;orthogonalLoop=1;jettySize=auto;html=1;endArrow=none;endFill=0;" parent="1" source="7xcAEnI3vwqQjyfLTwkh-8" edge="1">
          <mxGeometry relative="1" as="geometry">
            <mxPoint x="340" y="240" as="targetPoint" />
          </mxGeometry>
        </mxCell>
        <mxCell id="7xcAEnI3vwqQjyfLTwkh-8" value="Password" style="ellipse;whiteSpace=wrap;html=1;align=center;fillColor=#f8cecc;strokeColor=#b85450;" parent="1" vertex="1">
          <mxGeometry x="290" y="30" width="100" height="40" as="geometry" />
        </mxCell>
        <mxCell id="7xcAEnI3vwqQjyfLTwkh-9" value="First Name" style="ellipse;whiteSpace=wrap;html=1;align=center;fillColor=#f8cecc;strokeColor=#b85450;" parent="1" vertex="1">
          <mxGeometry x="130" y="140" width="100" height="40" as="geometry" />
        </mxCell>
        <mxCell id="7xcAEnI3vwqQjyfLTwkh-10" value="Last Name" style="ellipse;whiteSpace=wrap;html=1;align=center;fillColor=#f8cecc;strokeColor=#b85450;" parent="1" vertex="1">
          <mxGeometry x="470" y="140" width="100" height="40" as="geometry" />
        </mxCell>
        <mxCell id="7xcAEnI3vwqQjyfLTwkh-11" value="Role" style="ellipse;whiteSpace=wrap;html=1;align=center;fillColor=#f8cecc;strokeColor=#b85450;" parent="1" vertex="1">
          <mxGeometry x="380" y="80" width="100" height="40" as="geometry" />
        </mxCell>
        <mxCell id="7xcAEnI3vwqQjyfLTwkh-15" style="edgeStyle=orthogonalEdgeStyle;rounded=0;orthogonalLoop=1;jettySize=auto;html=1;entryX=0.591;entryY=-0.03;entryDx=0;entryDy=0;entryPerimeter=0;endArrow=none;endFill=0;" parent="1" source="7xcAEnI3vwqQjyfLTwkh-11" target="7xcAEnI3vwqQjyfLTwkh-1" edge="1">
          <mxGeometry relative="1" as="geometry">
            <Array as="points">
              <mxPoint x="430" y="180" />
              <mxPoint x="359" y="180" />
            </Array>
          </mxGeometry>
        </mxCell>
        <mxCell id="7xcAEnI3vwqQjyfLTwkh-16" style="edgeStyle=orthogonalEdgeStyle;rounded=0;orthogonalLoop=1;jettySize=auto;html=1;entryX=0.806;entryY=0.066;entryDx=0;entryDy=0;entryPerimeter=0;endArrow=none;endFill=0;" parent="1" source="7xcAEnI3vwqQjyfLTwkh-10" target="7xcAEnI3vwqQjyfLTwkh-1" edge="1">
          <mxGeometry relative="1" as="geometry">
            <Array as="points">
              <mxPoint x="520" y="200" />
              <mxPoint x="381" y="200" />
            </Array>
          </mxGeometry>
        </mxCell>
        <mxCell id="7xcAEnI3vwqQjyfLTwkh-29" style="edgeStyle=orthogonalEdgeStyle;rounded=0;orthogonalLoop=1;jettySize=auto;html=1;startArrow=ERone;startFill=0;endArrow=none;endFill=0;" parent="1" source="7xcAEnI3vwqQjyfLTwkh-17" target="7xcAEnI3vwqQjyfLTwkh-20" edge="1">
          <mxGeometry relative="1" as="geometry" />
        </mxCell>
        <mxCell id="7xcAEnI3vwqQjyfLTwkh-54" style="edgeStyle=orthogonalEdgeStyle;rounded=0;orthogonalLoop=1;jettySize=auto;html=1;endArrow=none;endFill=0;" parent="1" source="7xcAEnI3vwqQjyfLTwkh-17" target="7xcAEnI3vwqQjyfLTwkh-32" edge="1">
          <mxGeometry relative="1" as="geometry" />
        </mxCell>
        <mxCell id="7xcAEnI3vwqQjyfLTwkh-17" value="Manufacturer" style="whiteSpace=wrap;html=1;align=center;fillColor=#dae8fc;strokeColor=#6c8ebf;" parent="1" vertex="1">
          <mxGeometry x="1110" y="60" width="100" height="40" as="geometry" />
        </mxCell>
        <mxCell id="7xcAEnI3vwqQjyfLTwkh-18" value="Description" style="ellipse;whiteSpace=wrap;html=1;align=center;fillColor=#f8cecc;strokeColor=#b85450;" parent="1" vertex="1">
          <mxGeometry x="1020" y="270" width="100" height="40" as="geometry" />
        </mxCell>
        <mxCell id="7xcAEnI3vwqQjyfLTwkh-19" value="Image URL" style="ellipse;whiteSpace=wrap;html=1;align=center;fillColor=#f8cecc;strokeColor=#b85450;" parent="1" vertex="1">
          <mxGeometry x="1020" y="330" width="100" height="40" as="geometry" />
        </mxCell>
        <mxCell id="7xcAEnI3vwqQjyfLTwkh-20" value="Produces" style="shape=rhombus;perimeter=rhombusPerimeter;whiteSpace=wrap;html=1;align=center;fillColor=#1ba1e2;fontColor=#ffffff;strokeColor=#006EAF;" parent="1" vertex="1">
          <mxGeometry x="930" y="50" width="120" height="60" as="geometry" />
        </mxCell>
        <mxCell id="7xcAEnI3vwqQjyfLTwkh-21" value="Price" style="ellipse;whiteSpace=wrap;html=1;align=center;fillColor=#f8cecc;strokeColor=#b85450;" parent="1" vertex="1">
          <mxGeometry x="1020" y="150" width="100" height="40" as="geometry" />
        </mxCell>
        <mxCell id="7xcAEnI3vwqQjyfLTwkh-22" value="Specification" style="ellipse;whiteSpace=wrap;html=1;align=center;fillColor=#f8cecc;strokeColor=#b85450;" parent="1" vertex="1">
          <mxGeometry x="1020" y="390" width="100" height="40" as="geometry" />
        </mxCell>
        <mxCell id="7xcAEnI3vwqQjyfLTwkh-24" style="edgeStyle=orthogonalEdgeStyle;rounded=0;orthogonalLoop=1;jettySize=auto;html=1;entryX=0;entryY=0.5;entryDx=0;entryDy=0;endArrow=none;endFill=0;" parent="1" source="7xcAEnI3vwqQjyfLTwkh-4" target="7xcAEnI3vwqQjyfLTwkh-6" edge="1">
          <mxGeometry relative="1" as="geometry">
            <Array as="points">
              <mxPoint x="980" y="260" />
              <mxPoint x="980" y="230" />
            </Array>
          </mxGeometry>
        </mxCell>
        <mxCell id="7xcAEnI3vwqQjyfLTwkh-32" value="Name" style="ellipse;whiteSpace=wrap;html=1;align=center;fillColor=#f8cecc;strokeColor=#b85450;" parent="1" vertex="1">
          <mxGeometry x="1280" y="60" width="100" height="40" as="geometry" />
        </mxCell>
        <mxCell id="7xcAEnI3vwqQjyfLTwkh-48" style="edgeStyle=orthogonalEdgeStyle;rounded=0;orthogonalLoop=1;jettySize=auto;html=1;endArrow=none;endFill=0;startArrow=ERoneToMany;startFill=0;" parent="1" source="7xcAEnI3vwqQjyfLTwkh-34" target="7xcAEnI3vwqQjyfLTwkh-47" edge="1">
          <mxGeometry relative="1" as="geometry">
            <Array as="points">
              <mxPoint x="540" y="380" />
            </Array>
          </mxGeometry>
        </mxCell>
        <mxCell id="7xcAEnI3vwqQjyfLTwkh-64" style="edgeStyle=orthogonalEdgeStyle;rounded=0;orthogonalLoop=1;jettySize=auto;html=1;" parent="1" source="7xcAEnI3vwqQjyfLTwkh-34" target="7xcAEnI3vwqQjyfLTwkh-63" edge="1">
          <mxGeometry relative="1" as="geometry">
            <Array as="points">
              <mxPoint x="580" y="600" />
              <mxPoint x="640" y="600" />
            </Array>
          </mxGeometry>
        </mxCell>
        <mxCell id="oClUzId7rrmeoczvIOf4-4" style="edgeStyle=orthogonalEdgeStyle;rounded=0;orthogonalLoop=1;jettySize=auto;html=1;entryX=0.5;entryY=0;entryDx=0;entryDy=0;" parent="1" source="7xcAEnI3vwqQjyfLTwkh-34" target="oClUzId7rrmeoczvIOf4-1" edge="1">
          <mxGeometry relative="1" as="geometry">
            <Array as="points">
              <mxPoint x="530" y="600" />
              <mxPoint x="530" y="600" />
            </Array>
          </mxGeometry>
        </mxCell>
        <mxCell id="oClUzId7rrmeoczvIOf4-5" style="edgeStyle=orthogonalEdgeStyle;rounded=0;orthogonalLoop=1;jettySize=auto;html=1;" parent="1" source="7xcAEnI3vwqQjyfLTwkh-34" target="oClUzId7rrmeoczvIOf4-3" edge="1">
          <mxGeometry relative="1" as="geometry">
            <Array as="points">
              <mxPoint x="500" y="600" />
              <mxPoint x="420" y="600" />
            </Array>
          </mxGeometry>
        </mxCell>
        <mxCell id="7xcAEnI3vwqQjyfLTwkh-34" value="Order" style="whiteSpace=wrap;html=1;align=center;fillColor=#dae8fc;strokeColor=#6c8ebf;" parent="1" vertex="1">
          <mxGeometry x="490" y="540" width="100" height="40" as="geometry" />
        </mxCell>
        <mxCell id="7xcAEnI3vwqQjyfLTwkh-74" style="edgeStyle=orthogonalEdgeStyle;rounded=0;orthogonalLoop=1;jettySize=auto;html=1;entryX=0;entryY=0.5;entryDx=0;entryDy=0;endArrow=none;endFill=0;" parent="1" source="7xcAEnI3vwqQjyfLTwkh-35" target="7xcAEnI3vwqQjyfLTwkh-73" edge="1">
          <mxGeometry relative="1" as="geometry">
            <Array as="points">
              <mxPoint x="-60" y="180" />
            </Array>
          </mxGeometry>
        </mxCell>
        <mxCell id="7xcAEnI3vwqQjyfLTwkh-76" style="edgeStyle=orthogonalEdgeStyle;rounded=0;orthogonalLoop=1;jettySize=auto;html=1;entryX=0.5;entryY=1;entryDx=0;entryDy=0;endArrow=none;endFill=0;" parent="1" source="7xcAEnI3vwqQjyfLTwkh-35" target="7xcAEnI3vwqQjyfLTwkh-71" edge="1">
          <mxGeometry relative="1" as="geometry" />
        </mxCell>
        <mxCell id="7xcAEnI3vwqQjyfLTwkh-77" style="edgeStyle=orthogonalEdgeStyle;rounded=0;orthogonalLoop=1;jettySize=auto;html=1;entryX=0.5;entryY=1;entryDx=0;entryDy=0;endArrow=none;endFill=0;" parent="1" source="7xcAEnI3vwqQjyfLTwkh-35" target="7xcAEnI3vwqQjyfLTwkh-70" edge="1">
          <mxGeometry relative="1" as="geometry">
            <Array as="points">
              <mxPoint x="-110" y="150" />
              <mxPoint x="-180" y="150" />
            </Array>
          </mxGeometry>
        </mxCell>
        <mxCell id="7xcAEnI3vwqQjyfLTwkh-78" style="edgeStyle=orthogonalEdgeStyle;rounded=0;orthogonalLoop=1;jettySize=auto;html=1;entryX=1;entryY=0.5;entryDx=0;entryDy=0;endArrow=none;endFill=0;" parent="1" source="7xcAEnI3vwqQjyfLTwkh-35" target="7xcAEnI3vwqQjyfLTwkh-69" edge="1">
          <mxGeometry relative="1" as="geometry">
            <Array as="points">
              <mxPoint x="-120" y="180" />
            </Array>
          </mxGeometry>
        </mxCell>
        <mxCell id="7xcAEnI3vwqQjyfLTwkh-84" style="edgeStyle=orthogonalEdgeStyle;rounded=0;orthogonalLoop=1;jettySize=auto;html=1;entryX=0.5;entryY=0;entryDx=0;entryDy=0;endArrow=none;endFill=0;startArrow=ERone;startFill=0;" parent="1" source="7xcAEnI3vwqQjyfLTwkh-35" target="7xcAEnI3vwqQjyfLTwkh-83" edge="1">
          <mxGeometry relative="1" as="geometry" />
        </mxCell>
        <mxCell id="7xcAEnI3vwqQjyfLTwkh-35" value="Shipping address" style="whiteSpace=wrap;html=1;align=center;fillColor=#dae8fc;strokeColor=#6c8ebf;" parent="1" vertex="1">
          <mxGeometry x="-140" y="240" width="100" height="40" as="geometry" />
        </mxCell>
        <mxCell id="7xcAEnI3vwqQjyfLTwkh-89" style="edgeStyle=orthogonalEdgeStyle;rounded=0;orthogonalLoop=1;jettySize=auto;html=1;entryX=0.5;entryY=1;entryDx=0;entryDy=0;endArrow=none;endFill=0;" parent="1" source="7xcAEnI3vwqQjyfLTwkh-36" target="7xcAEnI3vwqQjyfLTwkh-86" edge="1">
          <mxGeometry relative="1" as="geometry">
            <Array as="points">
              <mxPoint x="680" y="-50" />
              <mxPoint x="590" y="-50" />
            </Array>
          </mxGeometry>
        </mxCell>
        <mxCell id="7xcAEnI3vwqQjyfLTwkh-36" value="Category" style="whiteSpace=wrap;html=1;align=center;fillColor=#dae8fc;strokeColor=#6c8ebf;" parent="1" vertex="1">
          <mxGeometry x="660" y="-30" width="100" height="40" as="geometry" />
        </mxCell>
        <mxCell id="7xcAEnI3vwqQjyfLTwkh-49" style="edgeStyle=orthogonalEdgeStyle;rounded=0;orthogonalLoop=1;jettySize=auto;html=1;endArrow=ERoneToMany;endFill=0;" parent="1" source="7xcAEnI3vwqQjyfLTwkh-47" edge="1">
          <mxGeometry relative="1" as="geometry">
            <mxPoint x="830" y="280" as="targetPoint" />
            <Array as="points">
              <mxPoint x="830" y="380" />
            </Array>
          </mxGeometry>
        </mxCell>
        <mxCell id="7xcAEnI3vwqQjyfLTwkh-47" value="Contains" style="shape=rhombus;perimeter=rhombusPerimeter;whiteSpace=wrap;html=1;align=center;fillColor=#1ba1e2;fontColor=#ffffff;strokeColor=#006EAF;" parent="1" vertex="1">
          <mxGeometry x="630" y="350" width="120" height="60" as="geometry" />
        </mxCell>
        <mxCell id="7xcAEnI3vwqQjyfLTwkh-52" style="edgeStyle=orthogonalEdgeStyle;rounded=0;orthogonalLoop=1;jettySize=auto;html=1;endArrow=ERoneToMany;endFill=0;exitX=0.5;exitY=0;exitDx=0;exitDy=0;" parent="1" source="7xcAEnI3vwqQjyfLTwkh-50" target="7xcAEnI3vwqQjyfLTwkh-36" edge="1">
          <mxGeometry relative="1" as="geometry">
            <Array as="points">
              <mxPoint x="710" y="40" />
              <mxPoint x="710" y="40" />
            </Array>
          </mxGeometry>
        </mxCell>
        <mxCell id="7xcAEnI3vwqQjyfLTwkh-50" value="Belongs to" style="shape=rhombus;perimeter=rhombusPerimeter;whiteSpace=wrap;html=1;align=center;fillColor=#1ba1e2;strokeColor=#006EAF;fontColor=#ffffff;" parent="1" vertex="1">
          <mxGeometry x="650" y="100" width="120" height="60" as="geometry" />
        </mxCell>
        <mxCell id="SQWabiUZMMFKBCWZd26D-2" style="edgeStyle=orthogonalEdgeStyle;rounded=0;orthogonalLoop=1;jettySize=auto;html=1;endArrow=none;endFill=0;" edge="1" parent="1" source="7xcAEnI3vwqQjyfLTwkh-55" target="SQWabiUZMMFKBCWZd26D-1">
          <mxGeometry relative="1" as="geometry" />
        </mxCell>
        <mxCell id="7xcAEnI3vwqQjyfLTwkh-55" value="Shopping Cart" style="whiteSpace=wrap;html=1;align=center;fillColor=#dae8fc;strokeColor=#6c8ebf;" parent="1" vertex="1">
          <mxGeometry x="820" y="540" width="100" height="40" as="geometry" />
        </mxCell>
        <mxCell id="7xcAEnI3vwqQjyfLTwkh-59" style="edgeStyle=orthogonalEdgeStyle;rounded=0;orthogonalLoop=1;jettySize=auto;html=1;endArrow=ERmany;endFill=0;" parent="1" source="7xcAEnI3vwqQjyfLTwkh-57" target="7xcAEnI3vwqQjyfLTwkh-55" edge="1">
          <mxGeometry relative="1" as="geometry" />
        </mxCell>
        <mxCell id="7xcAEnI3vwqQjyfLTwkh-57" value="Contains" style="shape=rhombus;perimeter=rhombusPerimeter;whiteSpace=wrap;html=1;align=center;fillColor=#1ba1e2;fontColor=#ffffff;strokeColor=#006EAF;" parent="1" vertex="1">
          <mxGeometry x="810" y="410" width="120" height="60" as="geometry" />
        </mxCell>
        <mxCell id="7xcAEnI3vwqQjyfLTwkh-61" style="edgeStyle=orthogonalEdgeStyle;rounded=0;orthogonalLoop=1;jettySize=auto;html=1;entryX=0;entryY=0.5;entryDx=0;entryDy=0;endArrow=ERmandOne;endFill=0;" parent="1" source="7xcAEnI3vwqQjyfLTwkh-60" target="7xcAEnI3vwqQjyfLTwkh-55" edge="1">
          <mxGeometry relative="1" as="geometry" />
        </mxCell>
        <mxCell id="7xcAEnI3vwqQjyfLTwkh-62" style="edgeStyle=orthogonalEdgeStyle;rounded=0;orthogonalLoop=1;jettySize=auto;html=1;endArrow=ERmandOne;endFill=0;" parent="1" source="7xcAEnI3vwqQjyfLTwkh-60" target="7xcAEnI3vwqQjyfLTwkh-34" edge="1">
          <mxGeometry relative="1" as="geometry" />
        </mxCell>
        <mxCell id="7xcAEnI3vwqQjyfLTwkh-60" value="Creates" style="shape=rhombus;perimeter=rhombusPerimeter;whiteSpace=wrap;html=1;align=center;fillColor=#1ba1e2;fontColor=#ffffff;strokeColor=#006EAF;" parent="1" vertex="1">
          <mxGeometry x="650" y="530" width="120" height="60" as="geometry" />
        </mxCell>
        <mxCell id="7xcAEnI3vwqQjyfLTwkh-63" value="Order ID" style="ellipse;whiteSpace=wrap;html=1;align=center;fillColor=#f8cecc;strokeColor=#b85450;" parent="1" vertex="1">
          <mxGeometry x="590" y="660" width="100" height="40" as="geometry" />
        </mxCell>
        <mxCell id="7xcAEnI3vwqQjyfLTwkh-67" style="edgeStyle=orthogonalEdgeStyle;rounded=0;orthogonalLoop=1;jettySize=auto;html=1;endArrow=ERone;endFill=0;" parent="1" source="7xcAEnI3vwqQjyfLTwkh-66" target="7xcAEnI3vwqQjyfLTwkh-1" edge="1">
          <mxGeometry relative="1" as="geometry" />
        </mxCell>
        <mxCell id="7xcAEnI3vwqQjyfLTwkh-68" style="edgeStyle=orthogonalEdgeStyle;rounded=0;orthogonalLoop=1;jettySize=auto;html=1;endArrow=ERzeroToMany;endFill=0;" parent="1" source="7xcAEnI3vwqQjyfLTwkh-66" target="7xcAEnI3vwqQjyfLTwkh-35" edge="1">
          <mxGeometry relative="1" as="geometry" />
        </mxCell>
        <mxCell id="7xcAEnI3vwqQjyfLTwkh-66" value="Has" style="shape=rhombus;perimeter=rhombusPerimeter;whiteSpace=wrap;html=1;align=center;fillColor=#1ba1e2;fontColor=#ffffff;strokeColor=#006EAF;" parent="1" vertex="1">
          <mxGeometry x="90" y="230" width="120" height="60" as="geometry" />
        </mxCell>
        <mxCell id="7xcAEnI3vwqQjyfLTwkh-69" value="Address Line 1" style="ellipse;whiteSpace=wrap;html=1;align=center;fillColor=#f8cecc;strokeColor=#b85450;" parent="1" vertex="1">
          <mxGeometry x="-280" y="160" width="100" height="40" as="geometry" />
        </mxCell>
        <mxCell id="7xcAEnI3vwqQjyfLTwkh-70" value="Address Line 2" style="ellipse;whiteSpace=wrap;html=1;align=center;fillColor=#f8cecc;strokeColor=#b85450;" parent="1" vertex="1">
          <mxGeometry x="-230" y="90" width="100" height="40" as="geometry" />
        </mxCell>
        <mxCell id="7xcAEnI3vwqQjyfLTwkh-71" value="City" style="ellipse;whiteSpace=wrap;html=1;align=center;fillColor=#f8cecc;strokeColor=#b85450;" parent="1" vertex="1">
          <mxGeometry x="-140" y="40" width="100" height="40" as="geometry" />
        </mxCell>
        <mxCell id="7xcAEnI3vwqQjyfLTwkh-72" value="Coutry" style="ellipse;whiteSpace=wrap;html=1;align=center;fillColor=#f8cecc;strokeColor=#b85450;" parent="1" vertex="1">
          <mxGeometry x="-50" y="90" width="100" height="40" as="geometry" />
        </mxCell>
        <mxCell id="7xcAEnI3vwqQjyfLTwkh-73" value="zip code" style="ellipse;whiteSpace=wrap;html=1;align=center;fillColor=#f8cecc;strokeColor=#b85450;" parent="1" vertex="1">
          <mxGeometry x="-10" y="160" width="100" height="40" as="geometry" />
        </mxCell>
        <mxCell id="7xcAEnI3vwqQjyfLTwkh-75" style="edgeStyle=orthogonalEdgeStyle;rounded=0;orthogonalLoop=1;jettySize=auto;html=1;endArrow=none;endFill=0;" parent="1" source="7xcAEnI3vwqQjyfLTwkh-35" edge="1">
          <mxGeometry relative="1" as="geometry">
            <mxPoint y="130" as="targetPoint" />
            <Array as="points">
              <mxPoint x="-70" y="150" />
              <mxPoint y="150" />
            </Array>
          </mxGeometry>
        </mxCell>
        <mxCell id="7xcAEnI3vwqQjyfLTwkh-81" style="edgeStyle=orthogonalEdgeStyle;rounded=0;orthogonalLoop=1;jettySize=auto;html=1;endArrow=ERzeroToMany;endFill=0;" parent="1" source="7xcAEnI3vwqQjyfLTwkh-79" edge="1">
          <mxGeometry relative="1" as="geometry">
            <mxPoint x="490" y="550" as="targetPoint" />
            <Array as="points">
              <mxPoint x="350" y="550" />
              <mxPoint x="490" y="550" />
            </Array>
          </mxGeometry>
        </mxCell>
        <mxCell id="7xcAEnI3vwqQjyfLTwkh-79" value="Has" style="shape=rhombus;perimeter=rhombusPerimeter;whiteSpace=wrap;html=1;align=center;fillColor=#1ba1e2;fontColor=#ffffff;strokeColor=#006EAF;" parent="1" vertex="1">
          <mxGeometry x="290" y="350" width="120" height="60" as="geometry" />
        </mxCell>
        <mxCell id="7xcAEnI3vwqQjyfLTwkh-85" style="edgeStyle=orthogonalEdgeStyle;rounded=0;orthogonalLoop=1;jettySize=auto;html=1;entryX=0;entryY=0.75;entryDx=0;entryDy=0;endArrow=ERzeroToMany;endFill=0;" parent="1" source="7xcAEnI3vwqQjyfLTwkh-83" target="7xcAEnI3vwqQjyfLTwkh-34" edge="1">
          <mxGeometry relative="1" as="geometry" />
        </mxCell>
        <mxCell id="7xcAEnI3vwqQjyfLTwkh-83" value="Has" style="shape=rhombus;perimeter=rhombusPerimeter;whiteSpace=wrap;html=1;align=center;fillColor=#1ba1e2;fontColor=#ffffff;strokeColor=#006EAF;" parent="1" vertex="1">
          <mxGeometry x="-150" y="540" width="120" height="60" as="geometry" />
        </mxCell>
        <mxCell id="7xcAEnI3vwqQjyfLTwkh-86" value="Name" style="ellipse;whiteSpace=wrap;html=1;align=center;fillColor=#f8cecc;strokeColor=#b85450;" parent="1" vertex="1">
          <mxGeometry x="540" y="-140" width="100" height="40" as="geometry" />
        </mxCell>
        <mxCell id="7xcAEnI3vwqQjyfLTwkh-90" style="edgeStyle=orthogonalEdgeStyle;rounded=0;orthogonalLoop=1;jettySize=auto;html=1;entryX=0.75;entryY=0;entryDx=0;entryDy=0;endArrow=none;endFill=0;" parent="1" source="7xcAEnI3vwqQjyfLTwkh-87" target="7xcAEnI3vwqQjyfLTwkh-36" edge="1">
          <mxGeometry relative="1" as="geometry">
            <Array as="points">
              <mxPoint x="820" y="-50" />
              <mxPoint x="735" y="-50" />
            </Array>
          </mxGeometry>
        </mxCell>
        <mxCell id="7xcAEnI3vwqQjyfLTwkh-87" value="Description" style="ellipse;whiteSpace=wrap;html=1;align=center;fillColor=#f8cecc;strokeColor=#b85450;" parent="1" vertex="1">
          <mxGeometry x="770" y="-140" width="100" height="40" as="geometry" />
        </mxCell>
        <mxCell id="oClUzId7rrmeoczvIOf4-1" value="Created At" style="ellipse;whiteSpace=wrap;html=1;align=center;fillColor=#f8cecc;strokeColor=#b85450;" parent="1" vertex="1">
          <mxGeometry x="480" y="660" width="100" height="40" as="geometry" />
        </mxCell>
        <mxCell id="oClUzId7rrmeoczvIOf4-3" value="Order Status" style="ellipse;whiteSpace=wrap;html=1;align=center;fillColor=#f8cecc;strokeColor=#b85450;" parent="1" vertex="1">
          <mxGeometry x="370" y="660" width="100" height="40" as="geometry" />
        </mxCell>
        <mxCell id="SQWabiUZMMFKBCWZd26D-1" value="Cart ID" style="ellipse;whiteSpace=wrap;html=1;align=center;fillColor=#f8cecc;strokeColor=#b85450;" vertex="1" parent="1">
          <mxGeometry x="990" y="540" width="100" height="40" as="geometry" />
        </mxCell>
      </root>
    </mxGraphModel>
  </diagram>
</mxfile>
